<svg aria-hidden="true" style="position: absolute; width: 0; height: 0; overflow: hidden;" version="1.1" xmlns="http://www.w3.org/2000/svg" xmlns:xlink="http://www.w3.org/1999/xlink">
<defs>
<symbol id="icon-shopping" viewBox="0 0 32 32">
<path d="M9.334 28c0-1.473 1.194-2.667 2.667-2.667s2.667 1.194 2.667 2.667c0 1.473-1.194 2.667-2.667 2.667s-2.667-1.194-2.667-2.667z"></path>
<path d="M24 28c0-1.473 1.194-2.667 2.667-2.667s2.667 1.194 2.667 2.667-1.194 2.667-2.667 2.667c-1.473 0-2.667-1.194-2.667-2.667z"></path>
<path d="M0 1.333c0-0.736 0.597-1.333 1.333-1.333h5.333c0.636 0 1.183 0.449 1.307 1.072l1.12 5.595h21.573c0.397 0 0.774 0.177 1.027 0.483s0.357 0.709 0.282 1.1l-2.135 11.197c-0.183 0.921-0.684 1.748-1.415 2.337-0.728 0.586-1.637 0.898-2.571 0.884h-12.937c-0.934 0.015-1.843-0.298-2.571-0.884-0.731-0.588-1.232-1.415-1.415-2.336-0-0 0 0 0 0l-2.227-11.129c-0.009-0.037-0.017-0.074-0.022-0.112l-1.109-5.54h-4.24c-0.736 0-1.333-0.597-1.333-1.333zM9.628 9.333l1.92 9.594c0.061 0.307 0.228 0.583 0.472 0.779s0.549 0.3 0.862 0.295l0.026-0 12.986 0c0.313 0.006 0.618-0.098 0.862-0.295 0.243-0.195 0.409-0.469 0.471-0.775l1.83-9.598h-19.427z"></path>
</symbol>
<symbol id="icon-user" viewBox="0 0 32 32">
<path stroke-linejoin="miter" stroke-linecap="butt" stroke-miterlimit="10" stroke-width="2.7429" d="M16.001 20c4.418 0 8-3.582 8-8s-3.582-8-8-8c-4.418 0-8 3.582-8 8s3.582 8 8 8z"></path>
<path stroke-linejoin="round" stroke-linecap="round" stroke-miterlimit="4" stroke-width="2.7429" d="M3.873 26.998c1.229-2.128 2.997-3.895 5.126-5.124s4.543-1.875 7.001-1.875c2.458 0 4.872 0.647 7.001 1.875s3.896 2.996 5.126 5.124"></path>
</symbol>
<symbol id="icon-like" viewBox="0 0 32 32">
<path fill="none" stroke="#111113" style="stroke: var(--color1, #111113)" stroke-linejoin="round" stroke-linecap="round" stroke-miterlimit="4" stroke-width="2.7429" d="M16.001 27c0 0-12.5-7-12.5-15.5 0-1.502 0.521-2.958 1.473-4.12s2.278-1.958 3.751-2.253c1.473-0.295 3.003-0.071 4.329 0.634s2.368 1.848 2.947 3.235v0c0.579-1.386 1.62-2.529 2.947-3.235s2.856-0.929 4.329-0.634 2.798 1.091 3.751 2.253c0.952 1.162 1.473 2.618 1.473 4.12 0 8.5-12.5 15.5-12.5 15.5z"></path>
<path fill="#c5c1b8" style="fill: var(--color2, #c5c1b8)" d="M31.273 21.091c0 3.749-3.039 6.788-6.788 6.788s-6.788-3.039-6.788-6.788c0-3.749 3.039-6.788 6.788-6.788s6.788 3.039 6.788 6.788z"></path>
</symbol>
<symbol id="icon-search" viewBox="0 0 32 32">
<path d="M14.668 5.333c-5.155 0-9.333 4.179-9.333 9.333s4.179 9.333 9.333 9.333c5.155 0 9.333-4.179 9.333-9.333s-4.179-9.333-9.333-9.333zM2.668 14.666c0-6.627 5.373-12 12-12s12 5.373 12 12c0 6.627-5.373 12-12 12s-12-5.373-12-12z"></path>
<path d="M21.257 21.256c0.521-0.521 1.365-0.521 1.886 0l5.8 5.8c0.521 0.521 0.521 1.365 0 1.886s-1.365 0.521-1.886 0l-5.8-5.8c-0.521-0.521-0.521-1.365 0-1.886z"></path>
</symbol>
<symbol id="icon-info" viewBox="0 0 32 32">
<path d="M16 7c-4.971 0-9 4.029-9 9s4.029 9 9 9c4.971 0 9-4.029 9-9s-4.029-9-9-9zM5 16c0-6.075 4.925-11 11-11s11 4.925 11 11c0 6.075-4.925 11-11 11s-11-4.925-11-11z"></path>
<path d="M5 16c0-0.552 0.448-1 1-1h20c0.552 0 1 0.448 1 1s-0.448 1-1 1h-20c-0.552 0-1-0.448-1-1z"></path>
<path d="M13 16c0.069-3.075 1.126-6.035 3-8.449 1.874 2.414 2.931 5.374 3 8.449-0.069 3.075-1.126 6.035-3 8.449-1.874-2.414-2.931-5.374-3-8.449zM16 6l-0.738-0.674c-2.665 2.917-4.179 6.703-4.261 10.654-0 0.014-0 0.028 0 0.042 0.082 3.95 1.597 7.736 4.261 10.654 0.189 0.207 0.457 0.326 0.738 0.326s0.549-0.118 0.738-0.326c2.665-2.917 4.179-6.703 4.261-10.654 0-0.014 0-0.028 0-0.042-0.082-3.95-1.597-7.736-4.261-10.654l-0.738 0.674z"></path>
</symbol>
<symbol id="icon-gift" viewBox="0 0 32 32">
<path d="M8 15c0.552 0 1 0.448 1 1v9h14v-9c0-0.552 0.448-1 1-1s1 0.448 1 1v10c0 0.552-0.448 1-1 1h-16c-0.552 0-1-0.448-1-1v-10c0-0.552 0.448-1 1-1z"></path>
<path d="M5 11c0-0.552 0.448-1 1-1h20c0.552 0 1 0.448 1 1v5c0 0.552-0.448 1-1 1h-20c-0.552 0-1-0.448-1-1v-5zM7 12v3h18v-3h-18z"></path>
<path d="M16 10c0.552 0 1 0.448 1 1v15c0 0.552-0.448 1-1 1s-1-0.448-1-1v-15c0-0.552 0.448-1 1-1z"></path>
<path d="M11.5 7c1.194 0 2.057 0.838 2.686 1.982 0.191 0.348 0.346 0.699 0.468 1.018h-3.154c-0.398 0-0.779-0.158-1.061-0.439s-0.439-0.663-0.439-1.061 0.158-0.779 0.439-1.061c0.281-0.281 0.663-0.439 1.061-0.439zM16 11c0.981-0.196 0.98-0.196 0.98-0.197l-0.001-0.003-0.001-0.005-0.003-0.016c-0.003-0.013-0.007-0.031-0.012-0.053-0.010-0.044-0.024-0.106-0.044-0.183-0.038-0.154-0.097-0.369-0.178-0.626-0.161-0.51-0.419-1.2-0.804-1.899-0.746-1.356-2.133-3.018-4.439-3.018-0.928 0-1.818 0.369-2.475 1.025s-1.025 1.547-1.025 2.475c0 0.928 0.369 1.818 1.025 2.475s1.547 1.025 2.475 1.025h4.5c0.3 0 0.583-0.134 0.773-0.366s0.266-0.537 0.207-0.831l-0.98 0.197z"></path>
<path d="M16.061 8.018c0.746-1.356 2.133-3.018 4.439-3.018 0.928 0 1.818 0.369 2.475 1.025s1.025 1.547 1.025 2.475c0 0.928-0.369 1.818-1.025 2.475s-1.547 1.025-2.475 1.025h-4.5c-0.3 0-0.583-0.134-0.773-0.366s-0.266-0.536-0.207-0.83l0.981 0.196c-0.981-0.196-0.981-0.196-0.981-0.196l0-0.002 0-0.002 0.001-0.005 0.003-0.016c0.003-0.013 0.007-0.031 0.012-0.053 0.010-0.044 0.024-0.106 0.044-0.183 0.038-0.154 0.097-0.369 0.178-0.626 0.161-0.51 0.419-1.2 0.804-1.899zM17.346 10h3.154c0.398 0 0.779-0.158 1.061-0.439s0.439-0.663 0.439-1.061-0.158-0.779-0.439-1.061c-0.281-0.281-0.663-0.439-1.061-0.439-1.194 0-2.057 0.838-2.686 1.982-0.191 0.348-0.346 0.699-0.468 1.018zM16.98 11.198c-0 0-0 0 0 0v0z"></path>
</symbol>
<symbol id="icon-arrow-right" viewBox="0 0 32 32">
<path d="M16.943 5.724c-0.521-0.521-1.365-0.521-1.886 0s-0.521 1.365 0 1.886l7.057 7.057h-15.448c-0.736 0-1.333 0.597-1.333 1.333s0.597 1.333 1.333 1.333h15.448l-7.057 7.057c-0.521 0.521-0.521 1.365 0 1.886s1.365 0.521 1.886 0l9.333-9.333c0.521-0.521 0.521-1.365 0-1.886l-9.333-9.333z"></path>
</symbol>
</defs>
</svg>
